<mxfile host="app.diagrams.net" modified="2024-06-13T21:27:29.424Z" agent="Mozilla/5.0 (X11; Linux x86_64) AppleWebKit/537.36 (KHTML, like Gecko) Chrome/125.0.0.0 Safari/537.36" etag="1iWjF7hs6Pxks77Vlqz3" version="24.5.4" type="github">
  <diagram name="Page-1" id="YF7zsrVVAj1ZkRc4BdFs">
    <mxGraphModel dx="1674" dy="703" grid="1" gridSize="10" guides="1" tooltips="1" connect="1" arrows="1" fold="1" page="1" pageScale="1" pageWidth="850" pageHeight="1100" math="0" shadow="0">
      <root>
        <mxCell id="0" />
        <mxCell id="1" parent="0" />
      </root>
    </mxGraphModel>
  </diagram>
</mxfile>
